<!--?xml version="1.0" encoding="utf-8"?-->
<!-- Svg Vector Icons : http://www.onlinewebfonts.com/icon -->

<svg version="1.1" xmlns="http://www.w3.org/2000/svg" xmlns:xlink="http://www.w3.org/1999/xlink" x="0px" y="0px" viewBox="0 0 256 256" enable-background="new 0 0 256 256" xml:space="preserve">
<metadata> Svg Vector Icons : http://www.onlinewebfonts.com/icon </metadata>
<g><g><path fill="#ffff" data-title="Layer 0" xs="0" d="M223.9,39.5h-66.4c0-16.3-13.2-29.5-29.5-29.5S98.5,23.2,98.5,39.5H32.1c-4.1,0-7.4,3.3-7.4,7.4v191.8c0,4.1,3.3,7.4,7.4,7.4h191.8c4.1,0,7.4-3.3,7.4-7.4V46.9C231.3,42.8,228,39.5,223.9,39.5z M128,24.8c8.1,0,14.8,6.6,14.8,14.8c0,8.2-6.6,14.8-14.8,14.8c-8.1,0-14.8-6.6-14.8-14.8C113.2,31.4,119.8,24.8,128,24.8z M216.5,231.3h-177v-177H69v22.1c0,4.1,3.3,7.4,7.4,7.4h103.3c4.1,0,7.4-3.3,7.4-7.4V54.3h29.5V231.3z"/><path fill="#ffff" data-title="Layer 1" xs="1" d="M113.3,207.9l-47.3-54.7l13.5-13.5l33.8,26.4l63.3-55.9l13.5,13.5L113.3,207.9z"/></g></g>
</svg>